<?xml version="1.0" encoding="UTF-8"?><svg id="Layer_1" xmlns="http://www.w3.org/2000/svg" viewBox="0 0 701.44 800" width="701.44" height="800"><title>Landvetter IF</title><defs><style>.cls-1{fill:#2d2926;}.cls-2{fill:#ab2328;}.cls-3{fill:#fff;}.cls-4{fill:#2d2926;}</style></defs><path class="cls-2" d="M677.73,432.93c-12.11-67.81-28.56-159.92,3.55-411.03-65.3,24.38-117.65,35.36-167.4,35.36s-100.92-11.04-163.15-35.72c-62.24,24.68-112.76,35.72-163.15,35.72S85.46,46.27,20.16,21.9c32.11,251.11,15.66,343.22,3.55,411.03-5.34,29.91-9.95,55.73-9.47,89.08,1.61,111.08,81.08,138.65,173.1,170.56,58.76,20.38,119.36,41.39,163.38,86.28,44.02-44.89,104.62-65.91,163.38-86.28,92.02-31.92,171.49-59.48,173.1-170.56.48-33.35-4.13-59.18-9.47-89.08Z"/><path class="cls-1" d="M350.72,21.54c62.24,24.68,112.76,35.72,163.15,35.72s102.11-10.99,167.4-35.36c-32.11,251.11-15.66,343.22-3.55,411.03,5.34,29.91,9.95,55.73,9.47,89.08-1.61,111.08-81.08,138.65-173.1,170.56-58.76,20.38-119.36,41.39-163.38,86.28-44.02-44.89-104.62-65.91-163.38-86.28-92.02-31.92-171.49-59.48-173.1-170.56-.48-33.35,4.13-59.18,9.47-89.08,12.11-67.81,28.56-159.92-3.55-411.03,65.3,24.38,117.65,35.36,167.4,35.36s100.92-11.04,163.15-35.72M698.48,0c-71.76,28.79-128.81,43.06-184.6,43.06-51.87,0-102.65-12.34-163.15-36.82-60.49,24.48-111.29,36.82-163.15,36.82C131.77,43.06,74.73,28.79,2.96,0,54.42,382.07-1.63,406.99.04,522.22c2.92,201.75,245.61,152.05,350.68,277.78,105.07-125.73,347.76-76.02,350.68-277.78,1.67-115.23-54.39-140.16-2.92-522.22h0Z"/><path class="cls-3" d="M698.48,0c-71.76,28.79-128.81,43.06-184.6,43.06-51.87,0-102.65-12.34-163.15-36.82-60.49,24.48-111.29,36.82-163.15,36.82C131.77,43.06,74.73,28.79,2.96,0,54.42,382.07-1.63,406.99.04,522.22c2.92,201.75,245.61,152.05,350.68,277.78,105.07-125.73,347.76-76.02,350.68-277.78,1.67-115.23-54.39-140.16-2.92-522.22ZM37.1,43.05c57.03,19.52,104.69,28.41,150.46,28.41,50.83,0,101.55-10.74,163.15-34.67,61.6,23.93,112.32,34.67,163.15,34.67,42.41,0,86.46-7.66,138.07-24.31,0,0,0,0,0,0L34.31,565.47h0c-3.7-12.99-5.63-27.42-5.87-43.66-.46-31.99,3.82-55.99,9.25-86.38,11.89-66.6,27.92-156.35-.59-392.38ZM626.61,625.15c-30.06,23.8-72.37,38.47-117.16,54.01-56.06,19.44-113.75,39.45-158.72,80.02-44.98-40.57-102.67-60.58-158.72-80.02-17.06-5.92-33.75-11.71-49.55-17.93l506.4-424.96h0c-2.69,100.56,7.02,154.97,14.91,199.17,5.43,30.39,9.71,54.39,9.25,86.38-.68,46.6-14.98,78.47-46.39,103.34Z"/><g id="BOLL"><path class="cls-3" d="M196.96,107.65c-56.2,0-101.93,45.72-101.93,101.93s45.72,101.93,101.93,101.93,101.93-45.72,101.93-101.93-45.72-101.93-101.93-101.93Z"/><path class="cls-1" d="M196.96,110.05c-54.88,0-99.53,44.65-99.53,99.53s44.65,99.53,99.53,99.53,99.53-44.65,99.53-99.53-44.65-99.53-99.53-99.53ZM283.22,163.66l-14.9,35.62-31.32,3.13-29.14-34.38,5.68-30.41,43.13-5.36c10.92,8.45,20,19.14,26.55,31.4ZM196.8,307.32c-17.8-.03-34.49-4.86-48.87-13.24l-3.88-38.48,23.09-24.52,45.46,10.87,9.02,33.12-24.83,32.24ZM210.46,136.72l-5.71,30.55-39.72,18.27-26.51-13.45-.89-40.13c12.25-9.39,26.78-15.94,42.6-18.68l30.23,23.44ZM100.11,196.41l36.9-21.5,26.5,13.44,1.71,40.12-23.62,25.08-36.71-11.15c-3.67-10.26-5.68-21.31-5.68-32.82,0-4.47.33-8.86.91-13.17ZM265.82,278.88l-41.28-5.23-9.02-33.12,21.21-34.88,31.84-3.18,22.96,31.82c-4.48,17.14-13.51,32.46-25.72,44.59ZM292.47,230.32c-.28,1.29-.57,2.58-.9,3.85.33-1.3.62-2.58.9-3.85Z"/></g><path class="cls-3" d="M571.26,559.03h-40.12v45.56h-24.24v-110.27h77.53v.04l-6.54,20.35h-46.74v25.48h46.17l-6.05,18.84Z"/><path class="cls-3" d="M485.59,494.32v110.27h-24.24v-110.27h24.24Z"/><path class="cls-4" d="M350.72,21.54c62.24,24.68,112.76,35.72,163.15,35.72s102.11-10.99,167.4-35.36c-32.11,251.11-15.66,343.22-3.55,411.03,5.34,29.91,9.95,55.73,9.47,89.08-1.61,111.08-81.08,138.65-173.1,170.56-58.76,20.38-119.36,41.39-163.38,86.28-44.02-44.89-104.62-65.91-163.38-86.28-92.02-31.92-171.49-59.48-173.1-170.56-.48-33.35,4.13-59.18,9.47-89.08,12.11-67.81,28.56-159.92-3.55-411.03,65.3,24.38,117.65,35.36,167.4,35.36s100.92-11.04,163.15-35.72M698.48,0c-71.76,28.79-128.81,43.06-184.6,43.06-51.87,0-102.65-12.34-163.15-36.82-60.49,24.48-111.29,36.82-163.15,36.82C131.77,43.06,74.73,28.79,2.96,0,54.42,382.07-1.63,406.99.04,522.22c2.92,201.75,245.61,152.05,350.68,277.78,105.07-125.73,347.76-76.02,350.68-277.78,1.67-115.23-54.39-140.16-2.92-522.22h0Z"/><polygon class="cls-1" points="177.69 572.51 167.43 565.57 170.14 552.61 183.69 551.71 188.47 563.45 177.69 572.51"/><path class="cls-1" d="M71.23,570.49l13.71-11.5,47.61,56.74,24.28-20.37,5.8,14.28-34.36,28.83-57.04-67.97Z"/><path class="cls-1" d="M180.5,551l-32.21-25.05-.19.16,19.07,36.07,7.05,13.23,8.92,17.01-14.28,11.98-39.04-83.07,16.95-14.22,75.03,52.88-14.28,11.98-15.21-11.74-11.81-9.24Z"/><path class="cls-1" d="M243.29,505.44l.19-.16-39.06-46.55,12.57-10.54,57.04,67.97-15.61,13.1-56.7-33.54-.19.16,39.94,47.6-12.57,10.54-57.04-67.97,15.8-13.26,55.63,32.65Z"/><path class="cls-1" d="M250.9,419.73c4.76-3.99,9.25-6.44,13.48-7.33,4.22-.89,8.36-.58,12.4.95,4.04,1.53,8.05,4.09,12.03,7.67,3.98,3.58,8.07,7.88,12.28,12.89,5.01,5.97,8.99,11.46,11.97,16.48,2.97,5.03,4.76,9.71,5.38,14.05.62,4.35.02,8.47-1.79,12.37-1.81,3.9-5,7.76-9.57,11.6l-21.61,18.13-57.04-67.97,22.47-18.85ZM296.81,479.85c2.41-2.02,4-4.06,4.77-6.11.77-2.05.78-4.39.04-7.01-.74-2.62-2.27-5.61-4.6-8.96-2.32-3.35-5.43-7.34-9.32-11.97-3.25-3.87-6.23-7.16-8.93-9.87-2.7-2.71-5.26-4.69-7.68-5.97-2.42-1.27-4.81-1.74-7.2-1.42-2.38.32-4.87,1.57-7.47,3.76l-5.81,4.87,40.1,47.79,6.09-5.11Z"/><path class="cls-1" d="M344.88,426.54l.29-.24-32.09-58.73,14.18-11.9,41.42,81.07-17.61,14.78-72.65-54.87,14.66-12.3,51.79,42.2Z"/><polygon class="cls-1" points="383.25 374.22 402.52 358.05 396.75 343.91 396.67 343.81 373.82 362.99 360.4 346.99 381.04 329.67 375.22 315.41 337.26 347.26 394.3 415.24 429.63 385.59 423.82 371.34 423.81 371.33 398.58 392.5 383.25 374.22"/><polygon class="cls-1" points="537.63 244.68 556.9 228.51 551.13 214.37 551.05 214.27 528.2 233.44 514.78 217.45 535.42 200.13 529.61 185.87 491.65 217.72 548.68 285.69 584.01 256.05 578.2 241.79 578.19 241.79 552.97 262.96 537.63 244.68"/><path class="cls-1" d="M437.91,281.95l-14.85,12.46,47.61,56.74-13.71,11.5-47.61-56.74-14.85,12.46-9.43-11.23,43.41-36.43,9.43,11.23Z"/><path class="cls-1" d="M490.13,238.13l-14.85,12.46,47.61,56.74-13.71,11.5-47.61-56.74-14.85,12.46-9.43-11.23,43.41-36.43,9.43,11.23Z"/><path class="cls-1" d="M567.2,154.32c5.71-4.79,11.36-7.07,16.96-6.85,5.6.22,10.87,3.29,15.82,9.19,3.83,4.57,6.04,9.07,6.63,13.5.58,4.44-.72,8.69-3.89,12.76l.16.19c3.85-2.37,7.29-3.36,10.32-2.98,3.02.38,6.32,2.32,9.9,5.81,1.19,1.16,2.44,2.47,3.76,3.9,1.32,1.44,2.78,3.05,4.38,4.84,3.16,3.51,5.67,6.12,7.52,7.81,1.98,1.58,3.89,2.19,5.75,1.82l.48.57-14.85,12.46c-1.5-.36-2.86-1.09-4.09-2.16-1.23-1.08-2.44-2.26-3.62-3.54l-11.32-12.72c-2.37-2.56-4.79-4.09-7.27-4.61-2.48-.51-5.15.43-8.01,2.83l-7.33,6.15,24.13,28.75-13.71,11.5-57.04-67.97,25.32-21.25ZM586.22,188.98c3.3-2.77,5.19-5.67,5.66-8.72.47-3.04-.84-6.41-3.93-10.09-5.27-6.28-11.08-6.76-17.43-1.44l-6.47,5.43,16.46,19.61,5.71-4.79Z"/></svg>